#!OML:ASF F:\VICON\USERDATA\INSTALL\rory3\rory3.ASF
:FULLY-SPECIFIED
:DEGREES
62
root 0.5280975160443804 17.774326873925727 25.346282206812973 1.1458384166180209 8.0859569606377 -0.9129059860304124
lfemur -19.972148043882008 0.0234482580380993 -23.532785094806737
ltibia 38.667597854583704
lfoot 1.0574467996583066 -12.56957522764541
ltoes -7.779961341039354
rfemur -13.567790594399995 2.899809595805782 28.204462252072258
rtibia 61.1290000399259
rfoot 4.660983101636102 -5.227505202737842
rtoes -1.2787075868960736
lowerback 14.229106141826888 0.6155831757745363 1.6159443119872199
upperback -0.8081463835351956 1.5899476569224507 0.5197660133373888
thorax -9.0969199993363 0.7924807957179371 -0.3982910585164991
lowerneck -19.709421324445334 -5.699383936922956 -1.9213234423667478
upperneck 15.117404767876726 -8.323095685766454 3.446585770782911
head 8.148685522443825 -3.3957988494512485 0.5190895547832624
lclavicle -1.9521729781560437e-15 1.1013548979497733e-15
lhumerus -54.63832826866078 -6.360266061592153 97.28360839947976
lradius 108.96115089589773
lwrist 46.62859043298505
lhand -17.66333261767824 6.240625829603884
lfingers 7.125020000000001
lthumb 8.172198545740478 36.11495388650143
rclavicle -1.952176533109819e-15 1.1013521049827522e-15
rhumerus -43.8348811996428 19.090198824162062 -102.44705790470834
rradius 112.28019339287404
rwrist -16.054034760283976
rhand -23.55039479164314 -108.98288342284374
rfingers 7.125020000000001
rthumb 3.1652998861967516 13.705117091470463
63
root 0.5158686949736226 17.638518185490554 25.388758607568512 1.0602247551999096 8.013797034877749 -0.25255579469788814
lfemur -17.178016864455543 0.24870544476606998 -23.342428801321123
ltibia 40.90557472905733
lfoot 0.9403436059952318 -11.979009613575943
ltoes -8.249477699963006
rfemur -14.966783483240198 2.4730469112258557 27.07557823446666
rtibia 62.693894802706204
rfoot 4.9002401309781485 -5.071338109611959
rtoes -1.2867782419186973
lowerback 14.596962629093953 0.5249292370619909 1.153849192989343
upperback -0.6810011508684898 1.2922295026952915 0.3538340896408535
thorax -9.204559385695532 0.6460913504893837 -0.1406219355455317
lowerneck -19.804106276809623 -5.6955630535855235 -1.9278534536876464
upperneck 14.999315726709693 -8.238956285360388 3.517693480881302
head 8.191175632441938 -3.333240931974497 0.5547110477638448
lclavicle -1.9521729781560437e-15 1.1013548979497733e-15
lhumerus -51.95851404312371 -6.933901934312192 97.42968326513147
lradius 108.55747936597608
lwrist 46.5656713466067
lhand -17.736426228434027 6.208033995438915
lfingers 7.125020000000001
lthumb 8.039148896673053 36.125494278991454
rclavicle -1.952176533109819e-15 1.1013521049827522e-15
rhumerus -44.44484416381658 18.435827270183587 -102.79639953093856
rradius 112.42578215817575
rwrist -15.749750134613429
rhand -23.78126798496232 -109.9272763393877
rfingers 7.125020000000001
rthumb 3.2794186521863633 13.646337592767406
64
root 0.5131753351862809 17.53635490607105 25.823846190514104 1.1247074786660485 7.819982008602046 0.44701068088385787
lfemur -18.398282787846025 -0.2913600603014767 -24.96729363942687
ltibia 42.677099642307894
lfoot 0.4165743045913919 -11.897780919916872
ltoes -8.674535920575686
rfemur -16.938976838778707 2.2480124263645935 26.260935321599483
rtibia 63.91709893393831
rfoot 4.700675256890992 -4.881898267800902
rtoes -1.2535443881890593
lowerback 14.910252455435472 0.4208196907915541 0.6469993486236729
upperback -0.5782906467403375 1.0622107238973928 0.1700034424436827
thorax -9.397323671395943 0.46084890582667715 0.002309725417190489
lowerneck -19.845897712765314 -5.600871892776971 -1.90667116781872
upperneck 14.973139303202199 -8.108249619345921 3.608695666248029
head 8.202681508957383 -3.309630959137252 0.5690754461627061
lclavicle -1.9521729781560437e-15 1.1013548979497733e-15
lhumerus -49.523618342119036 -7.548641003052938 97.4158477179395
lradius 108.33447132187756
lwrist 46.71034695505247
lhand -17.67402838143413 6.234515934568299
lfingers 7.125020000000001
lthumb 7.91876854264458 36.136993620340384
rclavicle -1.952176533109819e-15 1.1013521049827522e-15
rhumerus -45.111788191199615 17.685560579805312 -103.13392838535177
rradius 112.61472469531729
rwrist -15.590028649712487
rhand -23.746703100795244 -107.16528534093597
rfingers 7.125020000000001
rthumb 3.266014941840472 13.61020184627154
65
root 0.515330109436829 17.46189586593594 26.341739732392504 1.270076501120049 7.542994420052523 0.960018611552377
lfemur -15.415717812592245 -0.20339288957695922 -24.486905679967776
ltibia 43.456161531877534
lfoot 1.2483726496124459 -11.424937719875622
ltoes -9.453955366532053
rfemur -19.955303538769364 2.0029605259832195 25.310484333591834
rtibia 64.8068327856221
rfoot 4.6873636598256905 -4.422844779689792
rtoes -1.396093348469135
lowerback 15.165782858621636 0.32260916564621817 0.17615197078033562
upperback -0.5397040843765818 0.7693376561512104 -0.05899657715320061
thorax -9.42574187410823 0.36852350118185667 0.35599655973119615
lowerneck -19.920018584245607 -5.553566388545143 -1.8981027345530639
upperneck 14.947681250020326 -7.964015990354495 3.6854041090592644
head 8.195895060451342 -3.2737108974970095 0.5847845010437541
lclavicle -1.9521729781560437e-15 1.1013548979497733e-15
lhumerus -48.17982104105626 -8.153317796275411 97.18422844925644
lradius 108.4142443035382
lwrist 46.51708647697817
lhand -17.813785898716468 6.174711190058609
lfingers 7.125020000000001
lthumb 7.834615053151083 36.154078846656354
rclavicle -1.952176533109819e-15 1.1013521049827522e-15
rhumerus -45.89552339038829 16.880582694932723 -103.46902134392266
rradius 112.84931564565893
rwrist -15.88222117592713
rhand -23.95277230054745 -109.71522584002378
rfingers 7.125020000000001
rthumb 3.2720246590837947 13.780272689508015
66
root 0.522596455330621 17.415184411758293 27.127518650181567 1.4892074705079907 7.290966878344086 1.3260041128311544
lfemur -15.617650844491056 -0.6116142377054401 -25.559322700667646
ltibia 43.58341084600524
lfoot 1.6235489915228187 -11.534966414268958
ltoes -9.952734483435913
rfemur -21.64855093711442 1.8953598268466425 24.71640362527534
rtibia 64.89845004446138
rfoot 3.9484959082796336 -4.265906870044374
rtoes -1.0818831676537788
lowerback 15.312595435695997 0.20231238341398988 -0.23867788639598708
upperback -0.5170552339608607 0.5235225955236523 -0.18914728438975525
thorax -9.555487332163526 0.23209927005415043 0.5453781291846895
lowerneck -19.897573277415873 -5.416642442379104 -1.8693612869645566
upperneck 14.975815828284896 -7.804443528557865 3.750778276192584
head 8.196417020395604 -3.2268661377263332 0.6047039383580997
lclavicle -1.9521729781560437e-15 1.1013548979497733e-15
lhumerus -46.88186125875421 -8.614800636842489 97.01094691367892
lradius 108.83614121789928
lwrist 46.567505156225835
lhand -17.823595031226247 6.197180039847867
lfingers 7.125020000000001
lthumb 7.706944025825006 35.99980047008536
rclavicle -1.952176533109819e-15 1.1013521049827522e-15
rhumerus -46.71490415220587 16.118944064778663 -103.74630225083546
rradius 113.10307093267372
rwrist -16.195233361498246
rhand -23.897122757690376 -103.87242872755206
rfingers 7.125020000000001
rthumb 3.4005409120382644 13.937384287677887
67
root 0.5342158512662556 17.398194561444946 27.9297691869699 1.7590292444363436 6.970615224293632 1.5725678379989412
lfemur -12.03934170216437 -0.4239908840373095 -25.20982442136536
ltibia 43.38582216483905
lfoot 0.2834990715600678 -11.452496344696453
ltoes -9.836007565866769
rfemur -25.843727260883448 1.2314637209254808 23.58623474394886
rtibia 64.34857794038778
rfoot 3.4742543287249568 -4.162838639657507
rtoes -1.0714318890837096
lowerback 15.399926464721753 0.08593652332949575 -0.4487374222598599
upperback -0.5047592420966993 0.272098631098412 -0.206287538779254
thorax -9.443181654133525 0.2101895804753936 0.9654360512909357
lowerneck -19.996665259623164 -5.349724556334697 -1.8927840071942315
upperneck 14.993061619697112 -7.637821602175155 3.782993248805403
head 8.221718590643626 -3.174066793092636 0.6206625748534603
lclavicle -1.9521729781560437e-15 1.1013548979497733e-15
lhumerus -46.23239995447425 -9.145982867192117 96.749927092201
lradius 109.96497051011883
lwrist 46.86370278274858
lhand -17.952437857036553 6.174847292667188
lfingers 7.125020000000001
lthumb 7.789258943962141 35.96318474406681
rclavicle -1.952176533109819e-15 1.1013521049827522e-15
rhumerus -47.70374439369792 15.396469320307121 -103.98898779358845
rradius 113.32455231411454
rwrist -16.10453398319717
rhand -23.975611427670238 -108.68248897812896
rfingers 7.125020000000001
rthumb 3.370271556204943 14.019527712345047
68
root 0.5501787014985563 17.415032521965017 28.567394337803126 2.042651077114649 6.487368925362003 1.690195478848059
lfemur -12.244795023531083 -0.710656804540601 -25.89462452754273
ltibia 42.74367084792959
lfoot -1.0800847735685013 -11.904132816590133
ltoes -10.080871080239747
rfemur -27.868830381555732 1.045883462632235 23.63093027622931
rtibia 63.18132638485497
rfoot 2.7510646143891035 -4.367124981202848
rtoes -1.7370123207631591
lowerback 15.41592958159637 -0.04339467395845675 -0.5236241366952294
upperback -0.5333040406865837 -0.07851226601042882 -0.1591210104155032
thorax -9.470774706297833 0.13497544345302295 1.2354127978928795
lowerneck -20.007376147467514 -5.216887358181929 -1.9022691622144083
upperneck 14.998464313922861 -7.458479474861303 3.7702438777927236
head 8.230403738933582 -3.1188093037297935 0.6302210601406104
lclavicle -1.9521729781560437e-15 1.1013548979497733e-15
lhumerus -45.52262125211388 -9.582413359100007 96.55409988832875
lradius 110.79918935812766
lwrist 47.10487935833751
lhand -18.04011002295834 6.112467399602637
lfingers 7.125020000000001
lthumb 7.895351143308388 35.98081011833257
rclavicle -1.952176533109819e-15 1.1013521049827522e-15
rhumerus -48.749307050465745 14.846667719741896 -104.1334304780042
rradius 113.50124104426935
rwrist -15.825430170024829
rhand -23.827640662751996 -104.83812938300886
rfingers 7.125020000000001
rthumb 3.5554194471493847 14.43630998225801
69
root 0.5677562012080878 17.460447112839816 29.17448347134255 2.326163961462061 5.806285026300132 1.761160375842855
lfemur -10.027629007466789 -0.5239912509816416 -25.71016673795309
ltibia 41.51167262661636
lfoot -1.8176168331436358 -11.723171033113726
ltoes -9.567685230293598
rfemur -31.24428347228816 0.7888211817335997 22.950631230567907
rtibia 61.753035948324026
rfoot 2.863245876447836 -4.288080463006624
rtoes -2.279717627428055
lowerback 15.382178692631372 -0.17057029562468856 -0.4908357765194451
upperback -0.6087723206815872 -0.48864208095203754 -0.06488941469601994
thorax -9.449591314228918 0.009692165106311268 1.3254012359736818
lowerneck -20.030747901556577 -5.125175960075812 -1.9399442110841618
upperneck 15.021617268709733 -7.256219795783715 3.7239195873262774
head 8.24428268667053 -3.070415298580381 0.6336747491554692
lclavicle -1.9521729781560437e-15 1.1013548979497733e-15
lhumerus -44.64555503618712 -9.886122846648764 96.42332509181901
lradius 111.50203425140921
lwrist 46.802464884018335
lhand -18.107571419408107 6.153974082176818
lfingers 7.125020000000001
lthumb 7.985491760342365 36.02275753901354
rclavicle -1.952176533109819e-15 1.1013521049827522e-15
rhumerus -49.82479590774783 14.498457839466887 -104.18664846777129
rradius 113.6154269733143
rwrist -15.78838804175298
rhand -23.842264993503917 -103.17649277400547
rfingers 7.125020000000001
rthumb 3.8752426345459234 15.245544185684562
